<svg width="25" height="24" viewBox="0 0 25 24" fill="none" xmlns="http://www.w3.org/2000/svg">
<g clip-path="url(#clip0_371_5652)">
<path d="M15.397 5.25586C15.9332 4.60547 16.3111 3.71777 16.3111 2.82129C16.3111 2.69824 16.3023 2.5752 16.2847 2.47852C15.4058 2.51367 14.3511 3.05859 13.7271 3.79688C13.2261 4.35938 12.7691 5.25586 12.7691 6.15234C12.7691 6.29297 12.7955 6.4248 12.8043 6.46875C12.857 6.47754 12.9449 6.49512 13.0416 6.49512C13.8238 6.49512 14.8082 5.96777 15.397 5.25586ZM16.0123 6.67969C14.7027 6.67969 13.6304 7.47949 12.9449 7.47949C12.2154 7.47949 11.2662 6.73242 10.1236 6.73242C7.9527 6.73242 5.75543 8.52539 5.75543 11.9004C5.75543 14.0098 6.56402 16.2334 7.57477 17.666C8.43609 18.8789 9.19195 19.8721 10.2818 19.8721C11.3541 19.8721 11.8287 19.1602 13.1646 19.1602C14.5181 19.1602 14.8257 19.8545 16.0123 19.8545C17.19 19.8545 17.9722 18.7734 18.7193 17.71C19.5455 16.4883 19.897 15.3018 19.9058 15.2402C19.8355 15.2227 17.5855 14.2998 17.5855 11.7246C17.5855 9.49219 19.3521 8.49023 19.4576 8.41113C18.2886 6.73242 16.5045 6.67969 16.0123 6.67969Z" fill="white"/>
</g>
<defs>
<clipPath id="clip0_371_5652">
<rect width="24" height="24" fill="white" transform="translate(0.690002)"/>
</clipPath>
</defs>
</svg>
