<svg width="17" height="16" viewBox="0 0 17 16" fill="none" xmlns="http://www.w3.org/2000/svg">
<path d="M16.805 8.05C16.8089 6.99596 16.6051 5.95148 16.205 4.97628C15.805 4.00109 15.2167 3.11432 14.4737 2.36667C13.7307 1.61903 12.8476 1.02518 11.8749 0.619087C10.9022 0.212994 9.85904 0.00262117 8.805 0C4.385 0 0.804998 3.6 0.804998 8.05C0.801631 9.96116 1.47917 11.811 2.71614 13.2679C3.95311 14.7248 5.66859 15.6934 7.555 16V10.38H5.525V8.05H7.555V6.28C7.555 4.26 8.755 3.14 10.575 3.14C11.455 3.14 12.375 3.3 12.375 3.3V5.28H11.355C10.365 5.28 10.055 5.9 10.055 6.54V8.04H12.275L11.915 10.38H10.055V16C11.9414 15.6934 13.6569 14.7248 14.8939 13.2679C16.1308 11.811 16.8084 9.96116 16.805 8.05Z" fill="white"/>
</svg>
