<svg width="25" height="24" viewBox="0 0 25 24" fill="none" xmlns="http://www.w3.org/2000/svg">
<g clip-path="url(#clip0_371_5643)">
<path d="M20.4115 12.1497C20.4115 11.4942 20.3571 11.0159 20.2393 10.5198H12.5793V13.4785H17.0755C16.9849 14.2137 16.4954 15.321 15.4076 16.0651L15.3923 16.1641L17.8143 17.9976L17.9821 18.014C19.5231 16.6232 20.4115 14.5769 20.4115 12.1497Z" fill="#4285F4"/>
<path d="M12.5794 19.9451C14.7822 19.9451 16.6314 19.2364 17.9821 18.014L15.4077 16.0651C14.7187 16.5346 13.7941 16.8623 12.5794 16.8623C10.4219 16.8623 8.59081 15.4716 7.93807 13.5493L7.84239 13.5573L5.32403 15.4618L5.29109 15.5513C6.6327 18.1556 9.38848 19.9451 12.5794 19.9451Z" fill="#34A853"/>
<path d="M7.93805 13.5494C7.76582 13.0533 7.66613 12.5218 7.66613 11.9726C7.66613 11.4234 7.76581 10.8919 7.92898 10.3958L7.92442 10.2902L5.37451 8.35498L5.29107 8.39376C4.73812 9.47449 4.42085 10.6881 4.42085 11.9726C4.42085 13.2571 4.73812 14.4706 5.29107 15.5514L7.93805 13.5494Z" fill="#FBBC05"/>
<path d="M12.5794 7.08269C14.1114 7.08269 15.1448 7.72934 15.734 8.26974L18.0365 6.07286C16.6224 4.7884 14.7822 4 12.5794 4C9.38849 4 6.63271 5.78937 5.29109 8.39371L7.92901 10.3957C8.59082 8.47347 10.4219 7.08269 12.5794 7.08269Z" fill="#EB4335"/>
</g>
<defs>
<clipPath id="clip0_371_5643">
<rect width="24" height="24" fill="white" transform="translate(0.419998)"/>
</clipPath>
</defs>
</svg>
